<?xml version="1.0" encoding="utf-8"?>
<!-- Generator: Adobe Illustrator 24.0.1, SVG Export Plug-In . SVG Version: 6.00 Build 0)  -->
<svg version="1.1" id="Layer_1" xmlns="http://www.w3.org/2000/svg" xmlns:xlink="http://www.w3.org/1999/xlink" x="0px" y="0px"
	 viewBox="0 0 165 52" style="enable-background:new 0 0 165 52;" xml:space="preserve">
<style type="text/css">
	.st0{fill:#FFE4CC;}
	.st1{fill:url(#SVGID_1_);}
	.st2{fill:#FFC76E;}
	.st3{fill:#FFFFFF;}
	.st4{fill:#252B33;}
	.st5{opacity:0.5;fill:#FE4F28;}
	.st6{opacity:0.7;}
	.st7{opacity:0.5;}
	.st8{fill:#FF4344;}
</style>
<g>
	<g>
		<path class="st0" d="M43.2,14.9c0.5-0.2,0.8-0.7,1.4-1.6c0.6-0.9,1.1-1.7,1-2.8c0-0.3-0.1-1.7-1-2.5c-0.5-0.4-1.1-0.5-1.2-0.5
			c-0.6-0.1-1,0.1-1.4,0.2c-0.7,0.3-1.2,0.8-1.5,1c-0.6,0.6-0.9,1.2-1,1.5c-0.3,0.5-0.5,1-0.5,1.4C38.9,13.3,41.5,15.5,43.2,14.9z"
			/>
		<linearGradient id="SVGID_1_" gradientUnits="userSpaceOnUse" x1="0" y1="26" x2="50.8979" y2="26">
			<stop  offset="0" style="stop-color:#FF2A7D"/>
			<stop  offset="0.1495" style="stop-color:#FF3466"/>
			<stop  offset="0.5451" style="stop-color:#FE4C2F"/>
			<stop  offset="0.8405" style="stop-color:#FE5A0D"/>
			<stop  offset="1" style="stop-color:#FE6000"/>
		</linearGradient>
		<path class="st1" d="M43.7,13.6C25.4-15.9,0,11.7,0,11.7s10.8-4.6,16.7,0.8c0,0-16.7,4.6-13.2,25.6c0,0,5-12.6,17.7-6.1
			c0,0-12.2,1.4-6.4,19.9c0,0,8-10.6,13.4-8c1.9,0.9,1.4,5.7,1.4,5.7s3.4-6.5,6-5.7c0,0,1.1,1.9-1.5,5.6c0,0,5.6-1.8,6.5-6.3
			c0,0,3.8,1.2,3,4.9c0,0,11.4-8.4,5.6-19C49.2,29.3,45.8,17.1,43.7,13.6z"/>
		<path class="st0" d="M24.9,22.5c-0.8,0.1-1.4-0.2-2.7-0.7c-1.2-0.6-2.3-1.1-3-2.2c-0.2-0.3-1-1.8-0.4-3.4c0.3-0.8,0.9-1.3,1.1-1.4
			c0.6-0.5,1.3-0.6,1.7-0.7c1-0.2,1.9,0,2.4,0.1c1,0.2,1.7,0.7,2.1,0.9c0.7,0.4,1.2,0.7,1.5,1.1C28.8,17.9,27.2,22.1,24.9,22.5z"/>
		<path class="st2" d="M41.9,21.1c0,0-7.8-11.2-1.2-11.6c0,0,7.5,5.1,9.1,13.5C51.4,31.2,41.9,21.1,41.9,21.1z"/>
		<path class="st2" d="M26,35c0,0-9.5-12.5,3.3-22.3c1.6-1.2,7-5.1,10.2,9.1S26,35,26,35z"/>
		<path class="st3" d="M26,35c0,0,5-17.8,23.9-11.4c0,0,1.7,9.5-8.1,13.4C37,38.8,27.8,37.3,26,35z"/>
		<g>
			<path class="st4" d="M42.1,29.4l-0.6-0.1c0.2-1.4,0-5.6,0-5.6l0.6,0C42.1,23.8,42.3,27.9,42.1,29.4z"/>
		</g>
		<path class="st4" d="M38.6,22c0,0,1.3-1.4,4.1-1.1c0,0,1.6,0.3,0.6,2.1s-3.1,1.3-4.9,0C38.4,22.9,38,22.3,38.6,22z"/>
		<g>
			<path class="st4" d="M40.4,29.9c-3.1,0-4.3-3.2-4.3-3.3c-0.1-0.2,0-0.4,0.2-0.5c0.2-0.1,0.4,0,0.5,0.2c0.1,0.2,1.3,3.7,5,2.5
				c3.4-1.1,3.2-4.7,3.2-4.8c0-0.2,0.1-0.4,0.4-0.4c0.2,0,0.4,0.1,0.4,0.4c0,0,0.2,4.3-3.7,5.6C41.5,29.8,40.9,29.9,40.4,29.9z"/>
		</g>
		<ellipse transform="matrix(0.9739 -0.2272 0.2272 0.9739 -3.7563 7.9761)" class="st4" cx="32.8" cy="20.3" rx="1.4" ry="1.9"/>
		<ellipse transform="matrix(0.9739 -0.2272 0.2272 0.9739 -3.0682 10.2911)" class="st4" cx="43.2" cy="18.5" rx="0.9" ry="1.6"/>
		<ellipse transform="matrix(0.866 -0.5 0.5 0.866 -7.5867 19.3381)" class="st5" cx="32.3" cy="23.8" rx="1.9" ry="0.7"/>
		<ellipse transform="matrix(0.2248 -0.9744 0.9744 0.2248 14.7277 60.3759)" class="st5" cx="45.3" cy="20.9" rx="0.5" ry="1.4"/>
		<path class="st3" d="M17,4.7c0.2-0.2,0.4-0.3,0.6-0.4c0.2-0.1,0.4-0.2,0.7-0.3c0.5-0.2,0.9-0.4,1.4-0.5c1-0.3,2-0.4,3-0.5
			c2-0.1,4.1,0.2,6,0.9c0.5,0.2,0.9,0.4,1.4,0.6l0.7,0.4C31,5,31.2,5.1,31.4,5.2c0.9,0.5,1.7,1.2,2.4,1.9c1.4,1.4,2.6,3.1,3.2,5l0,0
			c0,0,0,0.1-0.1,0.1c0,0-0.1,0-0.1,0c-0.3-0.3-0.6-0.7-0.9-1l-0.5-0.5l-0.2-0.3L35,10.2l-0.5-0.5c-0.2-0.2-0.3-0.3-0.5-0.5
			c-0.3-0.3-0.7-0.6-1.1-0.9c-0.7-0.5-1.5-1.1-2.3-1.5c-0.4-0.2-0.8-0.4-1.2-0.6C28.9,6,28.5,5.9,28,5.7c-1.7-0.7-3.6-1.1-5.4-1.2
			c-0.9-0.1-1.9-0.1-2.8,0c-0.9,0.1-1.9,0.2-2.7,0.4c-0.1,0-0.1,0-0.1-0.1C17,4.8,17,4.7,17,4.7L17,4.7z"/>
		<g class="st6">
			<path class="st3" d="M22.2,9.3c0.5-0.5,1-0.8,1.6-1.1c0.3-0.1,0.6-0.3,0.9-0.4c0.3-0.1,0.6-0.2,0.9-0.3c1.3-0.3,2.6-0.4,4-0.2
				c0.3,0,0.7,0.1,1,0.2c0.3,0.1,0.6,0.2,1,0.3c0.6,0.2,1.2,0.5,1.8,0.8c1.1,0.7,2.1,1.5,2.9,2.6l0,0c0,0,0,0.1,0,0.1c0,0,0,0-0.1,0
				c-0.2-0.2-0.5-0.4-0.7-0.5c-0.3-0.2-0.5-0.4-0.8-0.5L34.3,10c-0.1-0.1-0.3-0.1-0.4-0.2c-0.3-0.2-0.5-0.3-0.8-0.4
				c-0.6-0.2-1.1-0.5-1.7-0.6c-0.6-0.2-1.2-0.3-1.8-0.4c-1.2-0.2-2.5-0.2-3.7,0c-0.6,0.1-1.2,0.2-1.8,0.4
				C23.4,8.9,22.8,9.1,22.2,9.3C22.3,9.4,22.2,9.3,22.2,9.3C22.2,9.3,22.2,9.3,22.2,9.3L22.2,9.3z"/>
		</g>
		<g class="st7">
			<path class="st3" d="M6.3,29.7c0.3-0.6,0.7-1.1,1.1-1.5c0.4-0.5,0.9-0.9,1.4-1.3c0.5-0.4,1.1-0.7,1.6-1c0.6-0.3,1.2-0.5,1.8-0.7
				c1.2-0.4,2.6-0.5,3.8-0.4c1.3,0.1,2.5,0.4,3.7,0.9l0,0c0,0,0,0,0,0c0,0,0,0,0,0c-1.2-0.3-2.4-0.5-3.7-0.5c-0.6,0-1.2,0-1.8,0.1
				c-0.6,0.1-1.2,0.2-1.8,0.4c-1.2,0.3-2.3,0.9-3.4,1.5C8.1,28,7.1,28.8,6.3,29.7C6.3,29.8,6.3,29.8,6.3,29.7
				C6.3,29.8,6.3,29.8,6.3,29.7L6.3,29.7z"/>
		</g>
		<g class="st7">
			<path class="st3" d="M17,44.8c0-0.8,0.2-1.7,0.6-2.4c0.1-0.2,0.2-0.4,0.3-0.5c0.1-0.2,0.2-0.3,0.4-0.5c0.1-0.2,0.3-0.3,0.4-0.5
				c0.1-0.2,0.3-0.3,0.5-0.4c0.2-0.1,0.3-0.3,0.5-0.4c0.2-0.1,0.3-0.3,0.5-0.3l0.6-0.3c0.2-0.1,0.4-0.2,0.6-0.2
				c0.4-0.2,0.8-0.2,1.2-0.3l0.2,0l0.2,0c0.1,0,0.2,0,0.3,0c0.2,0,0.4,0,0.6,0l0,0c0,0,0,0,0,0c0,0,0,0,0,0L23.3,39L23,39.1l-0.1,0
				l-0.1,0c-0.4,0.1-0.8,0.2-1.1,0.4c-0.7,0.3-1.4,0.8-2,1.3c-0.6,0.5-1.1,1.1-1.5,1.8c-0.1,0.2-0.2,0.3-0.3,0.5
				c-0.1,0.2-0.2,0.4-0.3,0.5C17.4,44,17.2,44.4,17,44.8C17.1,44.8,17.1,44.8,17,44.8C17.1,44.8,17,44.8,17,44.8L17,44.8z"/>
		</g>
		<g class="st7">
			<path class="st3" d="M46.3,36c0.5,0.5,0.8,1.1,1,1.8c0.1,0.3,0.2,0.7,0.2,1c0,0.2,0,0.3,0,0.5c0,0.2,0,0.3,0,0.5
				c-0.1,0.7-0.2,1.4-0.5,2c-0.1,0.3-0.3,0.6-0.5,0.9c-0.2,0.3-0.4,0.5-0.7,0.8l0,0c0,0,0,0,0,0c0,0,0,0,0,0
				c0.2-0.3,0.4-0.6,0.5-0.9c0.1-0.3,0.3-0.6,0.4-0.9c0.2-0.6,0.4-1.3,0.4-1.9c0.1-0.7,0-1.3-0.1-2C46.8,37.2,46.6,36.6,46.3,36
				C46.3,36,46.3,36,46.3,36C46.3,36,46.3,36,46.3,36L46.3,36z"/>
		</g>
		<g class="st7">
			<path class="st3" d="M38.4,39.5c0.4,0.3,0.7,0.7,0.9,1.2c0.1,0.2,0.2,0.5,0.2,0.7c0,0.1,0,0.3,0.1,0.4c0,0.1,0,0.3,0,0.4
				c0,0.5-0.1,1-0.3,1.5c-0.1,0.2-0.2,0.5-0.3,0.7c-0.1,0.2-0.3,0.4-0.5,0.6l0,0c0,0,0,0,0,0c0,0,0,0,0,0c0.1-0.2,0.2-0.4,0.3-0.7
				c0.1-0.2,0.2-0.4,0.2-0.7c0.1-0.5,0.2-0.9,0.2-1.4c0-0.5-0.1-1-0.2-1.4C38.8,40.4,38.6,40,38.4,39.5
				C38.3,39.6,38.3,39.5,38.4,39.5C38.4,39.5,38.4,39.5,38.4,39.5L38.4,39.5z"/>
		</g>
	</g>
	<path class="st4" d="M66.5,30.3v7h-6V13.1h10.6c6,0,10,3.3,10,8.5c0,3.4-1.7,6.1-4.6,7.5l6.2,8.2h-7.3l-5.2-7H66.5z M70.9,24.9
		c2.3,0,4.2-1.3,4.2-3.3c0-2-1.9-3.2-4.2-3.2h-4.5v6.5H70.9z"/>
	<path class="st4" d="M100.8,30.3l0,0.1H88.5c0.5,1.6,1.7,2.8,3.9,2.8c1.2,0,2.1-0.5,2.6-1.2h5.7c-0.8,3.6-4.1,5.8-8.4,5.8
		c-5.7,0-9.4-3.8-9.4-9c0-5.2,3.7-9,9.2-9c5,0,8.8,3.5,8.8,8.7C100.9,29,100.9,29.6,100.8,30.3z M88.4,27h7.1
		c-0.3-1.9-1.6-2.9-3.4-2.9C90.1,24.1,88.8,25.3,88.4,27z"/>
	<path class="st4" d="M122.4,37.3h-5.8v-0.9c-1.3,0.8-2.9,1.3-4.7,1.3c-4.7,0-8.6-3.9-8.6-9c0-5.1,3.9-9,8.6-9
		c1.9,0,3.5,0.5,4.7,1.3v-9h5.8V37.3z M116.6,31.4v-5.3c-1.1-1.2-2.3-1.6-3.6-1.6c-2.4,0-4.1,1.9-4.1,4.3c0,2.4,1.7,4.3,4.1,4.3
		C114.3,33,115.5,32.7,116.6,31.4z"/>
	<path class="st4" d="M132,37.3h-5.8V12h5.8V37.3z"/>
	<path class="st8" d="M135.6,14.1c0-1.9,1.5-3.3,3.4-3.3c1.9,0,3.4,1.4,3.4,3.3c0,1.9-1.5,3.2-3.4,3.2
		C137.1,17.4,135.6,16,135.6,14.1z"/>
	<rect x="136.1" y="20.1" class="st4" width="5.8" height="17.3"/>
	<path class="st4" d="M163.8,28.7c0,5.3-3.9,9.2-9.4,9.2c-5.5,0-9.4-3.9-9.4-9.2c0-5.2,3.9-9,9.4-9
		C159.9,19.7,163.8,23.5,163.8,28.7z M158.3,28.7c0-2.2-1.6-4.1-3.9-4.1c-2.4,0-3.9,1.8-3.9,4.1c0,2.3,1.6,4.2,3.9,4.2
		C156.8,32.9,158.3,31,158.3,28.7z"/>
</g>
</svg>
